<?xml version="1.0" encoding="utf-8"?>
<!-- Generator: Adobe Illustrator 16.0.0, SVG Export Plug-In . SVG Version: 6.00 Build 0)  -->
<!DOCTYPE svg PUBLIC "-//W3C//DTD SVG 1.1//EN" "http://www.w3.org/Graphics/SVG/1.1/DTD/svg11.dtd">
<svg version="1.1" id="Layer_1" xmlns="http://www.w3.org/2000/svg" xmlns:xlink="http://www.w3.org/1999/xlink" x="0px" y="0px"
	 width="300px" height="90px" viewBox="0 0 300 90" enable-background="new 0 0 300 90" xml:space="preserve">
<g>
	<g>
		<defs>
			<rect id="SVGID_1_" width="300" height="90"/>
		</defs>
		<clipPath id="SVGID_2_">
			<use xlink:href="#SVGID_1_"  overflow="visible"/>
		</clipPath>
		<g clip-path="url(#SVGID_2_)">
			
				<linearGradient id="SVGID_3_" gradientUnits="userSpaceOnUse" x1="141.2632" y1="-194.6055" x2="466.6582" y2="-194.6055" gradientTransform="matrix(1 0 0 -1 -156 -155)">
				<stop  offset="0" style="stop-color:#164B9C"/>
				<stop  offset="0.3978" style="stop-color:#4172B8"/>
				<stop  offset="1" style="stop-color:#7CB6E3"/>
			</linearGradient>
			<path fill="url(#SVGID_3_)" d="M90.526,65.789C51.79,52.631,12.763,72.369,0.658,88.814l-15.395,19.08V-28.684h320.92
				l4.475,103.815c-13.579-18.631-66.053-20.34-94.605-9.342C187.501,76.787,129.263,78.947,90.526,65.789z"/>
		</g>
	</g>
</g>
<g>
	<path fill="#D2E6FF" d="M71.455,40.488v-5.834h-4.553v5.834H64.38V27.086h2.522v5.383h4.553v-5.383h2.522v13.402H71.455z"/>
	<path fill="#D2E6FF" d="M85.452,34.479c0,0.171-0.005,0.393-0.016,0.667c-0.01,0.273-0.025,0.53-0.046,0.769h-6.85
		c0,0.458,0.07,0.861,0.21,1.21s0.339,0.641,0.595,0.877c0.257,0.235,0.564,0.415,0.923,0.538s0.757,0.185,1.195,0.185
		c0.506,0,1.047-0.039,1.625-0.118c0.577-0.078,1.177-0.207,1.799-0.384v1.989c-0.267,0.075-0.557,0.144-0.872,0.205
		s-0.636,0.116-0.964,0.164c-0.328,0.048-0.66,0.083-0.995,0.108c-0.335,0.023-0.66,0.036-0.974,0.036
		c-0.793,0-1.504-0.113-2.133-0.338c-0.629-0.225-1.162-0.559-1.6-1c-0.438-0.44-0.772-0.986-1.005-1.635
		c-0.233-0.649-0.349-1.401-0.349-2.256c0-0.848,0.116-1.618,0.349-2.312c0.233-0.694,0.561-1.289,0.984-1.784
		c0.423-0.495,0.938-0.878,1.543-1.148s1.28-0.405,2.025-0.405c0.738,0,1.391,0.115,1.958,0.344s1.042,0.548,1.425,0.958
		c0.383,0.41,0.673,0.899,0.872,1.466C85.35,33.182,85.452,33.803,85.452,34.479z M82.909,34.121
		c0.007-0.41-0.044-0.767-0.154-1.072c-0.109-0.304-0.258-0.555-0.446-0.753c-0.188-0.198-0.407-0.345-0.656-0.441
		c-0.25-0.096-0.518-0.144-0.805-0.144c-0.629,0-1.145,0.21-1.548,0.631c-0.403,0.42-0.643,1.013-0.718,1.779H82.909z"/>
	<path fill="#D2E6FF" d="M94.188,39.35c-0.362,0.902-0.74,1.693-1.133,2.374c-0.394,0.68-0.826,1.248-1.297,1.702
		c-0.471,0.454-0.997,0.796-1.574,1.025c-0.578,0.229-1.226,0.344-1.943,0.344c-0.171,0-0.357-0.009-0.559-0.025
		c-0.202-0.018-0.409-0.043-0.621-0.077V42.57c0.082,0.014,0.176,0.029,0.282,0.046c0.106,0.017,0.217,0.03,0.333,0.041
		c0.116,0.01,0.234,0.019,0.354,0.025c0.119,0.007,0.23,0.01,0.333,0.01c0.287,0,0.554-0.055,0.8-0.164
		c0.246-0.109,0.473-0.261,0.682-0.457c0.208-0.194,0.398-0.427,0.569-0.697s0.321-0.565,0.451-0.887L86.733,30.07h2.789
		l2.164,5.906l0.646,1.907l0.636-1.825l2.184-5.988h2.687L94.188,39.35z"/>
	<path fill="#D2E6FF" d="M100.207,42.467c0.41,0.014,0.793-0.01,1.148-0.072s0.665-0.159,0.928-0.292
		c0.263-0.134,0.47-0.303,0.62-0.508c0.15-0.205,0.226-0.448,0.226-0.728c0-0.198-0.029-0.368-0.087-0.507
		c-0.059-0.14-0.132-0.267-0.221-0.38c-0.089-0.112-0.183-0.222-0.282-0.328c-0.099-0.105-0.193-0.218-0.282-0.338
		c-0.089-0.12-0.163-0.257-0.22-0.41c-0.059-0.154-0.087-0.34-0.087-0.559c0-0.212,0.038-0.418,0.113-0.621
		c0.075-0.201,0.185-0.381,0.328-0.538c0.143-0.157,0.319-0.284,0.528-0.379c0.208-0.096,0.446-0.144,0.712-0.144
		c0.335,0,0.636,0.077,0.902,0.231c0.267,0.153,0.492,0.362,0.677,0.625c0.185,0.264,0.325,0.564,0.42,0.902
		c0.096,0.339,0.144,0.692,0.144,1.062c0,0.636-0.116,1.234-0.349,1.794c-0.233,0.56-0.581,1.049-1.046,1.466
		c-0.465,0.417-1.044,0.747-1.738,0.989c-0.694,0.242-1.505,0.364-2.435,0.364L100.207,42.467L100.207,42.467z"/>
	<path fill="#D2E6FF" d="M125.924,32.019h-2.943V30.07h5.505v8.47h3.006v1.948h-8.87V38.54h3.302V32.019z M128.691,27.22
		c0,0.226-0.041,0.438-0.123,0.636c-0.082,0.198-0.195,0.371-0.342,0.518c-0.148,0.147-0.32,0.264-0.52,0.349
		c-0.197,0.086-0.412,0.128-0.645,0.128s-0.449-0.042-0.652-0.128c-0.201-0.085-0.375-0.201-0.521-0.349
		c-0.148-0.146-0.262-0.319-0.344-0.518c-0.082-0.199-0.123-0.41-0.123-0.636c0-0.226,0.041-0.438,0.123-0.636
		s0.195-0.373,0.344-0.523c0.146-0.15,0.32-0.268,0.521-0.354c0.203-0.085,0.42-0.128,0.652-0.128s0.447,0.043,0.645,0.128
		c0.199,0.086,0.371,0.204,0.52,0.354c0.146,0.15,0.26,0.325,0.342,0.523S128.691,26.994,128.691,27.22z"/>
	<path fill="#D2E6FF" d="M134.846,31.608c0.41,0.014,0.792-0.01,1.148-0.072c0.354-0.062,0.664-0.157,0.928-0.287
		c0.263-0.13,0.47-0.297,0.62-0.502s0.226-0.451,0.226-0.738c0-0.198-0.029-0.367-0.087-0.508c-0.059-0.14-0.132-0.267-0.221-0.379
		c-0.089-0.113-0.183-0.222-0.282-0.328c-0.099-0.106-0.193-0.219-0.281-0.339c-0.09-0.119-0.163-0.256-0.221-0.41
		c-0.059-0.153-0.088-0.34-0.088-0.559c0-0.212,0.038-0.418,0.113-0.62c0.075-0.202,0.185-0.381,0.328-0.539
		c0.143-0.158,0.319-0.284,0.528-0.379c0.208-0.096,0.446-0.144,0.712-0.144c0.335,0,0.637,0.079,0.902,0.236
		c0.268,0.157,0.492,0.366,0.678,0.625c0.184,0.26,0.324,0.559,0.42,0.897c0.096,0.338,0.144,0.692,0.144,1.061
		c0,0.636-0.116,1.234-0.349,1.794s-0.581,1.049-1.046,1.466c-0.465,0.417-1.044,0.747-1.738,0.99
		c-0.693,0.243-1.506,0.364-2.435,0.364v-1.629H134.846z"/>
	<path fill="#D2E6FF" d="M153.004,40.488v-7.096c0-0.26-0.007-0.487-0.021-0.682c-0.014-0.195-0.041-0.357-0.082-0.487
		c-0.041-0.13-0.101-0.227-0.18-0.292c-0.078-0.065-0.187-0.098-0.322-0.098c-0.213,0-0.42,0.144-0.625,0.431
		c-0.205,0.287-0.438,0.776-0.697,1.466v6.757h-2.143v-7.096c0-0.26-0.008-0.487-0.021-0.682c-0.014-0.195-0.041-0.357-0.082-0.487
		c-0.041-0.13-0.102-0.227-0.184-0.292s-0.192-0.098-0.328-0.098c-0.179,0-0.377,0.144-0.596,0.431
		c-0.219,0.287-0.461,0.776-0.728,1.466v6.757h-2.163V30.07h1.855l0.041,1.518c0.15-0.308,0.301-0.571,0.451-0.79
		c0.15-0.219,0.311-0.398,0.482-0.539c0.17-0.14,0.354-0.241,0.548-0.302c0.195-0.062,0.415-0.092,0.661-0.092
		c0.581,0,1.024,0.152,1.328,0.456c0.305,0.305,0.477,0.727,0.518,1.267c0.164-0.308,0.327-0.571,0.487-0.79
		c0.161-0.219,0.327-0.398,0.503-0.539c0.174-0.14,0.361-0.241,0.563-0.302c0.203-0.062,0.426-0.092,0.672-0.092
		c0.76,0,1.319,0.265,1.683,0.795c0.362,0.53,0.544,1.314,0.544,2.353v7.475H153.004z"/>
	<path fill="#D2E6FF" d="M174.752,40.488h-3.342l-4.092-13.402h2.861l2.266,8.07l0.729,2.646l0.758-2.799l2.246-7.916h2.688
		L174.752,40.488z"/>
	<path fill="#D2E6FF" d="M186.822,40.488l-0.063-1.364c-0.219,0.232-0.447,0.446-0.687,0.641c-0.24,0.194-0.503,0.364-0.79,0.507
		s-0.6,0.254-0.938,0.333c-0.339,0.078-0.709,0.118-1.113,0.118c-0.532,0-1.002-0.079-1.404-0.236
		c-0.403-0.157-0.741-0.376-1.016-0.656c-0.273-0.28-0.479-0.619-0.619-1.015c-0.141-0.396-0.211-0.834-0.211-1.313
		c0-0.492,0.104-0.947,0.313-1.364c0.208-0.417,0.525-0.776,0.953-1.077s0.961-0.537,1.6-0.708c0.641-0.171,1.391-0.256,2.252-0.256
		h1.362v-0.625c0-0.267-0.037-0.508-0.112-0.723c-0.074-0.216-0.195-0.398-0.363-0.549c-0.168-0.15-0.385-0.267-0.65-0.349
		c-0.268-0.082-0.596-0.123-0.984-0.123c-0.614,0-1.223,0.07-1.819,0.21c-0.599,0.141-1.179,0.337-1.738,0.59v-2
		c0.499-0.198,1.075-0.362,1.728-0.492c0.653-0.13,1.332-0.195,2.037-0.195c0.771,0,1.436,0.074,1.987,0.221
		c0.556,0.147,1.011,0.367,1.369,0.661s0.624,0.661,0.795,1.103c0.171,0.44,0.256,0.955,0.256,1.543v7.116h-2.144V40.488z
		 M186.463,35.884h-1.527c-0.424,0-0.783,0.041-1.076,0.123c-0.295,0.082-0.532,0.195-0.719,0.338
		c-0.184,0.144-0.318,0.31-0.404,0.497c-0.086,0.188-0.129,0.388-0.129,0.6c0,0.424,0.138,0.747,0.41,0.969
		c0.273,0.222,0.646,0.333,1.119,0.333c0.348,0,0.711-0.126,1.086-0.379c0.377-0.253,0.789-0.615,1.24-1.087V35.884L186.463,35.884z
		"/>
	<path fill="#D2E6FF" d="M200.428,40.386c-0.451,0.104-0.904,0.185-1.363,0.246c-0.457,0.061-0.893,0.092-1.303,0.092
		c-0.684,0-1.271-0.072-1.769-0.215c-0.495-0.144-0.905-0.362-1.229-0.656s-0.563-0.668-0.719-1.123
		c-0.152-0.454-0.23-0.996-0.23-1.625v-5.086h-2.799V30.07h2.799v-2.666l2.563-0.667v3.333h4.05v1.948h-4.05v4.901
		c0,0.595,0.138,1.044,0.41,1.349s0.731,0.456,1.374,0.456c0.41,0,0.811-0.034,1.199-0.103c0.391-0.068,0.744-0.147,1.065-0.236
		L200.428,40.386L200.428,40.386z"/>
	<path fill="#D2E6FF" d="M211.975,37.422c0,0.595-0.131,1.102-0.395,1.523c-0.264,0.42-0.611,0.762-1.046,1.025
		c-0.435,0.263-0.927,0.455-1.478,0.574c-0.55,0.119-1.111,0.179-1.687,0.179c-0.767,0-1.456-0.036-2.071-0.108
		c-0.615-0.071-1.195-0.176-1.742-0.313v-2.256c0.643,0.267,1.282,0.46,1.922,0.579c0.64,0.12,1.242,0.18,1.811,0.18
		c0.656,0,1.146-0.104,1.473-0.313c0.323-0.208,0.486-0.48,0.486-0.815c0-0.157-0.035-0.301-0.104-0.431
		c-0.069-0.13-0.196-0.254-0.385-0.374c-0.188-0.12-0.453-0.243-0.795-0.369s-0.79-0.269-1.343-0.426
		c-0.515-0.144-0.963-0.306-1.349-0.487c-0.387-0.181-0.707-0.395-0.959-0.641c-0.254-0.246-0.442-0.531-0.569-0.856
		c-0.126-0.324-0.188-0.706-0.188-1.143c0-0.424,0.096-0.824,0.286-1.2c0.191-0.376,0.478-0.706,0.856-0.989
		c0.379-0.284,0.853-0.508,1.42-0.672c0.566-0.164,1.23-0.246,1.988-0.246c0.656,0,1.238,0.034,1.744,0.103
		c0.506,0.069,0.953,0.144,1.342,0.226v2.041c-0.594-0.191-1.152-0.326-1.676-0.405c-0.522-0.079-1.041-0.118-1.554-0.118
		s-0.925,0.092-1.235,0.277c-0.312,0.185-0.467,0.441-0.467,0.769c0,0.157,0.031,0.297,0.092,0.42
		c0.063,0.123,0.185,0.243,0.364,0.359c0.183,0.116,0.435,0.238,0.759,0.364c0.325,0.126,0.754,0.265,1.287,0.415
		c0.603,0.171,1.107,0.354,1.519,0.549c0.409,0.194,0.739,0.415,0.989,0.661s0.429,0.526,0.537,0.841
		C211.918,36.66,211.975,37.019,211.975,37.422z"/>
	<path fill="#D2E6FF" d="M221.459,40.488l-0.063-1.364c-0.219,0.232-0.447,0.446-0.687,0.641c-0.239,0.194-0.503,0.364-0.79,0.507
		s-0.6,0.254-0.938,0.333c-0.338,0.078-0.709,0.118-1.112,0.118c-0.533,0-1.002-0.079-1.405-0.236
		c-0.402-0.157-0.74-0.376-1.015-0.656c-0.274-0.28-0.479-0.619-0.62-1.015s-0.211-0.834-0.211-1.313
		c0-0.492,0.104-0.947,0.313-1.364s0.526-0.776,0.953-1.077c0.428-0.301,0.961-0.537,1.6-0.708c0.641-0.171,1.391-0.256,2.252-0.256
		h1.363v-0.625c0-0.267-0.037-0.508-0.113-0.723c-0.074-0.216-0.195-0.398-0.363-0.549c-0.167-0.15-0.385-0.267-0.65-0.349
		c-0.268-0.082-0.596-0.123-0.983-0.123c-0.615,0-1.224,0.07-1.82,0.21c-0.599,0.141-1.178,0.337-1.737,0.59v-2
		c0.498-0.198,1.074-0.362,1.728-0.492s1.331-0.195,2.036-0.195c0.771,0,1.436,0.074,1.988,0.221
		c0.555,0.147,1.01,0.367,1.369,0.661c0.358,0.294,0.623,0.661,0.795,1.103c0.17,0.44,0.256,0.955,0.256,1.543v7.116h-2.145V40.488z
		 M221.1,35.884h-1.526c-0.425,0-0.783,0.041-1.076,0.123c-0.295,0.082-0.533,0.195-0.72,0.338c-0.184,0.144-0.318,0.31-0.403,0.497
		c-0.086,0.188-0.129,0.388-0.129,0.6c0,0.424,0.137,0.747,0.409,0.969c0.273,0.222,0.646,0.333,1.119,0.333
		c0.349,0,0.711-0.126,1.086-0.379c0.377-0.253,0.789-0.615,1.24-1.087V35.884L221.1,35.884z"/>
	<path fill="#D2E6FF" d="M229.838,27.948h-2.943V26h5.506v12.54h3.006v1.948h-8.87V38.54h3.303L229.838,27.948L229.838,27.948z"/>
</g>
</svg>
